/* XPM */
static char *c5e3d20c3b0549eaacdcb3f5f3e9aa07[] = {
/* columns rows colors chars-per-pixel */
"64 64 46 1 ",
"  c #1E1E1C",
". c #201F1E",
"X c #1F201D",
"o c #21211E",
"O c #242522",
"+ c #282724",
"@ c #272825",
"# c #292926",
"$ c #2C2C2A",
"% c #312F2D",
"& c #2F302C",
"* c #31312E",
"= c #353531",
"- c #383734",
"; c #373834",
": c #3B3A36",
"> c #3E3D3A",
", c #413E3B",
"< c #43423E",
"1 c #464541",
"2 c #494743",
"3 c #4C4A46",
"4 c #4E4D49",
"5 c #504E47",
"6 c #514E4A",
"7 c #54524D",
"8 c #58554F",
"9 c #575551",
"0 c #595652",
"q c #5D5A55",
"w c #5E5D58",
"e c #605C57",
"r c #615E59",
"t c #65625D",
"y c #68655F",
"u c #676561",
"i c #6A6661",
"p c #6D6A64",
"a c #706E67",
"s c #716F68",
"d c #717067",
"f c #75726B",
"g c #78766E",
"h c #7A7770",
"j c #7E7C75",
"k c #807D76",
/* pixels */
"OO@1gjjjg&=$-tjjkjjjqO.qpsshkkkfsyOy-<tysssp-+3dkjkjhr$==#$$@. .",
"=*7hjjjjju@$rgjjjkjkjr$>pssssfssp0%jf+<ttuut$*3pgjkjjj6#@tfhhhp>",
"=9hkjkjjjs*=tdhkjjjjjg0Oqpsssssu0$1at*%*2661O=;tsgjjjkg%#tdjjhd=",
"wjkkkjjjdp$$3ifhjjjjhs>&,tupsiw1+$$-#;<,$o@$<4#qpsfjjkke#7ddfp<$",
"jjjjjjjdi:$$*rpfhjhfs6@&.6rtq,@%3q<#<gjjhp2@ps$-tpsssfhs$;usp1.w",
"ddggfspu<@3<#*tissssw@=7: =$$6phjjpO7jjjjjfO9:. 1tiasssa>$0t>Oqs",
"pspspit<orjjeo<tpspt@=ujf$$-ihkkjjfOejjjjjiO@=u1 ,ttiaui:$$=O9ti",
"ttttur,.9jjkjwO<ttr$#pjkj:$6fkkjjjsoyfjjjj6@=pjjwO=wrir,o,=$>ttt",
"70rrq:+1jjjjkj7O<9$$ujjkj0O0sjkkhgwOiddhjg*#rkkjjt@$33$*ijf#+=23",
"oOOO.$%sjjkkkkg>#O$rjjkjjpXqssgfsu<$upsdsq.1jjjkjjy#$#<fggp=*$Oo",
"tr6$=%3sjjjkjjjp+=4jjjjkkfO0ssauq-#$wtidp=#pjkkkjjjt#*ypu2#*<50t",
"jjh6$$wsjjkjjjjg==sjjkkjjh+6ut7-.$##=9tt9 6sfjkkjjkh$$7<#O8ipdjj",
"jjjg=#7agjjjkjjd=:sjjjjjkg#&<#*3ufgt>X&*O%rsshkkkkkd&**7*#ryddfk",
"jjjju$,udhjjkjhp@7shkjjjjd$*=qgjjjkjjt$$$6issafkkjgd#<fjt$;wypdf",
"sghkh2Orsshjjjfi.tssjjjjss@$tsjkjkjjjjtO$euassssgddi@dkkh#*&1typ",
"ypdfgp#2ussffdd9@ussjkjssp@1psjkkjjkjjtX%6riasssdddw*gkkj*#<&+3t",
"1rtpsd0#tidddss<*ysssfssst 0psfkkjjjjj6@=%rtusssdss4>hjjs@4jg4@$",
"$#,0tis:2tisssi$,tassssss6Otpsfkjjkkjf=$=O;tttpsspu=2gjg6#fjjsO=",
"=*@O%3eqo0tttt9O>ttuassat-#tussjjkkjjuOqh9.<ttuttt7.3ddp%3jjj9O$",
"hhsw2# OO#0071$$O-qrrtt8=O+9tssfkkkkh1=jjj9 -qw01$X$3ppq.usfp$>s",
"kkkjkhi1#&@O@$=$+OO#,,$ +=$:tussghhgp@tjjjj>O@OO#==*1tt==iiu3#ig",
"kkjkkjjjtO&;upggs0<=.+$8fjtOqtpdddsf4=hjjjjp@=&07=$=@OX %11>O7df",
"kkjjjjkjtO*idfkjjjhfq$-gjjj-=ttupppu$wkjjjkp$*tjjg2$$,<;$O$%-pdf",
"jkkjkjjj2o0udfjkkkjjjq$phhh7@:wtutt3&sjkjjj0#2jjjjr@7gjjhr=$2sss",
"fjjjkjjsOOttsfjjjjkjjg@qssp1&@O;6rq@3dhjjjf==gjkjj7$fjkkkj1$esss",
"dgjjjjh3O@wtushjjkjkji@=t3$@,it< O $tpgjjh0Orjkjjg*1jjjkjj2$riss",
"ssdgjhu@$@2ttpddhhjht@$$  $$8djjs<=$uddjgp&>pjjjhtXqjjkkjj1=ttps",
"ssssss:$q1$tttssdsp3@#=3rp>O,pjjjh3@,ussp3@1sfhgs1$pfjkkkf><tttp",
"isssp9Otjh$3tttipr=.:wgjjjg=Oqdghjy#$>tpw@=1dpppt#;psfkfsu%<turu",
"tussw@7jkktOqttw< =tgjkjjjjt $yipy:$#O=4$#O@473<#$3paspie3+O3rru",
"qrt0$,hkjjj=*2;X$7phjjkjjjkd$$=91#=2t3O#;9t@$O@#*=<q62:+oO%$.O-3",
" O@O$ukjjjj7+O$>rpdjjjjkjjhp@=$O:rgjjj3O9gqO7pit0:O#O+$=,221$%%O",
"tq1$3pjjjhsr#=$rtusjjjjjjfp2O$2pjjjkjkh;$-$rjjjjjf$$qigghjjh3&*7",
"kjj:2ihjgsp:%*$2tussghjhsstO;tgjjjkjkjjtO&9gkjjjjh%1djjjjjjj8#:g",
"jjjw=usssp1@#<&O9tsssssssp=$tdjjjjkkjjjg<$wsjjjjkh=4sjkkjkjj4@7g",
"sssi+0isu<.2ihp$Oeusssssp1O1pshjjkjjkjjg2$1pgjjjkh-6sfjkjjkj,@rd",
"9861#<ur>OqgjkkpO*tisssp9O@9isfjkjjjjkkd=%$isfjjjf=6ssgjjjjf=&<7",
".ooo#*=$@tjjkjjje ,rtpiq@=Otusshjkjjkjju#%$6ssshhp$3psssffdw@=OX",
"sdsy6@$$0jjjjkkkj6 3ttq#*=ottpssgghhhgd4Ot6%uapssi$1tusssst&$<0i",
"jkjkj0O$ujjjjkkkfs<.27@$@O $qtisddddddi&2ss=4ttt0:@O2rttpt=O3pjk",
"jkkkkg*@uskkkkhsssu%OO$$wi7&o>0uppsspa3Orssw$=&#O$:;+O=49*#*tgkk",
"jjkkkj7 risfhssssssqO%$ikjjht=O&3qwuu0O&0psp==@4tdjjfw:@O@#3ihkj",
"kjkkjjpO6tasssssssst=Owjkjkjjh3$$O*::$&&O=6r3%1pgjkkkkjp<#@qphjj",
"jkjkkjh::riaasasssut+1phjkjjjjd$$;<1>$$0r7>@#%2sjjkkkkkjuO-tpgjk",
"kjkjjjg4 qtrtttttrr6O,ushkkkkkiO4gjjjw.usjjg2$<ihjjjjjkjpO1tidgj",
"jjjjkjdto$4431,-=$$O%$eisfhhhh3$sjjjjgOrshkjj6@tdjjjkjjjpo6tidsg",
"fjkkjfpu+*...O$%:122=O*tusssdi$3hjjjjj>6sgkkkj1:udjjjjhgt qtudss",
"ddfjfpp4O,rtuasfhjjkf3O,ttsss4othjjjjj4<isfhjjs@2pddssspqOrttpss",
"dssssarO=tfkjjkjjkjkjh7 1ttut#:psjkjjge*tisdsff7O4ipppir>@rtripa",
"sssssy>Oefkkkkkjjkkjjjp1O<tt<$2isfjgssuOetyiiutqO#,31,$#@O6uirri",
"uppsu0 1isfhjjjkkjkjfdsqX@,4+*0yssfsssu++%--=%$O$*#O#$#$%=@>qrur",
"rwtuqOOrrassdfhhjgfsspq$$:$O*$7ttyiaitt$****$=;>$*%qfgpw3:%@O-6q",
"$=>,+@*triisssssssssu3@$1hf8;%o$-,:,::%@#8pfhjhjp$;sfkjkjjp1$$OO",
"w92:==@@16uriuasspuw=O$&tfjjf<&$##$:q4==$0sdjkjjj7$usgjjjkju.=rt",
"ffjjjf>=%#O#-36rtq>O@=@@tuir<#$$$**0jkr$==usfhjjjg&7psgjjhht 6ss",
"upuppp4$%,$=>9,OOo$2phs$$&#O$;<<;OO3sf:$O$-eisdggje=tpssdsp2#2uu",
"***===#$ejp$:sw$;qgjjjjp$=*;pjjjhi#-tq<gp$$#=7tisdd=0tiut0=@$O#%",
"fiq1;&*:gjks=-#<ifjjjjjj,&$pjjjkjh:$:,fkjp$@1>#<0ty<$tq2%#&>usff",
"kjkjd*#egjjkp=$7pfjjkjjf<@rhjkkkkh<**yjjkju#4dp<#=;*@#$=@=$rhjjj",
"jkjkf*&ishkjjt$=tsdhjjju@2fkjjkkkh:&3djjkjj8=pgju-*&,wsf<$1pgkjk",
"kjkhqo#0psgjji-$,tiddds2&pjjjkjkkg:%tshkjjkh#qiggy#<ihkk3+eafjjj",
"jjhp&&=#rsdgg0#=&*8tppt@wgjjkjkkkf:,yssjkjjk;>tu3#&>tash,=rasfhh",
"psp1@*<$$tpst#&$O&O=9t;:pjjjjkkkji--tdsfjjjj<$&XX$#$$1er%:rtyppp",
"tt1@=tjg**tt&$>wggt=XO@qpgjkjkjkfi%#2tissddp<*&1wtt9:%#+$OO-360r"
};
