/* XPM */
static char *result[] = {
/* columns rows colors chars-per-pixel */
"64 64 188 2 ",
"   c #2B1407",
".  c #2C1609",
"X  c #301709",
"o  c #331A0B",
"O  c #391D0D",
"+  c #351E10",
"@  c #391E10",
"#  c #39210F",
"$  c #2F221B",
"%  c #3C2312",
"&  c #3F2817",
"*  c #33271E",
"=  c #3B2A1D",
"-  c #2E2624",
";  c #2F2824",
":  c #2E2B2B",
">  c #302620",
",  c #332A25",
"<  c #3A2D25",
"1  c #352D2A",
"2  c #392F29",
"3  c #3F3026",
"4  c #36302E",
"5  c #3C322D",
"6  c #363333",
"7  c #3C3532",
"8  c #3E3935",
"9  c #3A3739",
"0  c #37393C",
"q  c #3C3A3B",
"w  c #44230F",
"e  c #4C250E",
"r  c #53280F",
"t  c #432613",
"y  c #4B2710",
"u  c #432916",
"i  c #4C2A14",
"p  c #452C1A",
"a  c #4A2D19",
"s  c #542D13",
"d  c #532B17",
"f  c #5A2E14",
"g  c #5D2F19",
"h  c #47301D",
"j  c #4C331D",
"k  c #4E381D",
"l  c #573417",
"z  c #5D3316",
"x  c #53331C",
"c  c #5B341B",
"v  c #52391F",
"b  c #5C391E",
"n  c #602C13",
"m  c #623519",
"M  c #67341A",
"N  c #633B1E",
"B  c #6A3C1D",
"V  c #453325",
"C  c #4C3523",
"Z  c #4E3926",
"A  c #43352D",
"S  c #48362B",
"D  c #46382F",
"F  c #4B3A2D",
"G  c #543621",
"H  c #5D3720",
"J  c #553B23",
"K  c #5B3C24",
"L  c #543D2C",
"P  c #5B3E29",
"I  c #423731",
"U  c #443A34",
"Y  c #4B3D33",
"T  c #433D3B",
"R  c #493F39",
"E  c #523E31",
"W  c #623D22",
"Q  c #613F2A",
"!  c #6A411E",
"~  c #564027",
"^  c #5C4225",
"/  c #57412E",
"(  c #5D422B",
")  c #46403D",
"_  c #4B423C",
"`  c #544234",
"'  c #5C4433",
"]  c #5E4836",
"[  c #53453C",
"{  c #5A4639",
"}  c #54483F",
"|  c #5C493B",
" . c #634226",
".. c #6B4324",
"X. c #674827",
"o. c #62452B",
"O. c #6A452A",
"+. c #66492C",
"@. c #6A4C2D",
"#. c #734824",
"$. c #714C2D",
"%. c #6E502F",
"&. c #71502F",
"*. c #614632",
"=. c #654A34",
"-. c #6B4D33",
";. c #644D3A",
":. c #6A4E3A",
">. c #704E31",
",. c #6D5134",
"<. c #65513F",
"1. c #6C523B",
"2. c #725334",
"3. c #785633",
"4. c #765935",
"5. c #7B5A36",
"6. c #73553B",
"7. c #7A5639",
"8. c #76593B",
"9. c #7B5C3D",
"0. c #7F603E",
"q. c #3D3E40",
"w. c #413F41",
"e. c #3F4042",
"r. c #434142",
"t. c #4B4542",
"y. c #4D4847",
"u. c #504743",
"i. c #534944",
"p. c #5A4C43",
"a. c #524C4A",
"s. c #584F48",
"d. c #5C5148",
"f. c #634F43",
"g. c #645042",
"h. c #6D5442",
"j. c #735642",
"k. c #795742",
"l. c #755943",
"z. c #7C5D42",
"x. c #7B5E4A",
"c. c #7E6142",
"v. c #7D614C",
"b. c #7C6252",
"n. c #8A5835",
"m. c #815E3E",
"M. c #82603E",
"N. c #8B633C",
"B. c #936A3F",
"V. c #825E42",
"C. c #836444",
"Z. c #896644",
"A. c #876847",
"S. c #8A6A46",
"D. c #84654B",
"F. c #89664A",
"G. c #866849",
"H. c #8C6C4B",
"J. c #926746",
"K. c #906E4C",
"L. c #8F704E",
"P. c #93724E",
"I. c #98754E",
"U. c #846651",
"Y. c #866852",
"T. c #8C6D53",
"R. c #8B6D59",
"E. c #916E50",
"W. c #8E7152",
"Q. c #8C705B",
"!. c #947452",
"~. c #987753",
"^. c #967854",
"/. c #9B7A55",
"(. c #93745A",
"). c #967959",
"_. c #9D7C5A",
"`. c #A17B56",
"'. c #A07F5A",
"]. c #937660",
"[. c #9E805A",
"{. c #A2825C",
"}. c #AA895F",
"|. c #A58561",
" X c #A88661",
".X c #A78861",
"XX c #AA8B64",
"oX c #B1936E",
/* pixels */
"a i y % a j j & t i y w r e y a l l l r y t a i i l y y y m x t w r w w i y t t y s y e s i t y t u i d a % p x l a t a y c G i ",
"l g c l H v G H c c N N M b m O.W ! B M W c c N ..N M ! g ! g m m n f r z d K o.K l N ! c b c B m f f l c i N W W m g H g W H W ",
"c l K c v x ^ v x W c +.O.W c .. .....N ..K H c B $...#.B W K W B l f g W x K J K ^ l X.N W K o.N s z W  .x  .^ Q o.H +.W b W Q ",
"J h j a j Z J k j a j L P J J J v ^ ^ v C j p V v K  .J x j K ^ b x v x J J Z C C j a k J P P  .b j x K J C k ~ G Z ' J G G J J ",
"P o.^ -.+.^ ( -.=.@.k ~ K K J ^ ^ v v k ~ k Z ^ J ^ ^ ^ +.^ ^ v b ^ ~ ^ ^ K +.o.v ^ h v k ^ ^ v K J K J Z k ~ v J ^ J ^ ^ ^ K j ",
"%.7.2.3.4.0.%.4.5.4.X.4.2.2.@.+.X.X.X.X.X.^ %.%.@.,.%.%.4.0.&.%.%.4.3.4.3.5.7.3.&.%. .@.%.%.%.@.&.&.@.@. .^ @.X.X.%.X.@.3.3.3.$.",
"+.@.@.%.@.%.+.%.2.@.~ ^ X.+.@.^ K K ~ ^ ^ v ^ ^ ^ ^ ~ X.X.%.+. .o.%.+.4.&.4.&.2.%.X.^ ^ X.+.@.@.+.@...X.^ x ^ ~ ^ ^ ^ o.@.2.@.@.",
" .-.9.4.2.%.-.%.&.2.~ ( ^ @.@.+.X.^ ~ ^  .v X.+.X.~ K X.2.%.@.^ ^ +.4.4.4.2.4.2.%.@.~ ^ o.+.+.@.%.2.+.,.^ j +.X.+.+. .2.@.,.+. .",
"@.5.4.5.4.&.2.+.4.o.~ X.+.-.@.+.o. .^ ^ X.J ( +.+.o.+.2.2.@.%.o.+.0.4.4.4.&.5.%.+.+.^ ,.3.-.&.9.3.3.7.2.@.^ &.2.&.4.,.4.%.%.%...",
"h j 2 5 2 4 , * , , , > , V C Z V D 3 5 5 > 7 6 : : V A 7 7 4 ; S S A S A 5 5 2 > 2 $ > - , 5 A 5 5 2 5 2 < 1 1 : ; A 4 6 8 : - ",
"h / U 8 5 A Z 5 4 4 4 4 3 A ` } ' / U 7 Y 5 q t._ U U S U 8 6 5 7 ` ` A F ` Y U I 7 $ ; , 2 T Y U 8 A 5 5 5 5 5 A ` / F Y U 4 : ",
"= V Z ` ` F F A 4 4 5 3 2 3 A _ ` ( L / D 3 _ F D _ Y D 7 U 8 1 5 7 / S ` 5 5 D Z Y = 5 2 5 I 7 5 5 2 1 A A A 3 A _ A / / Y A ; ",
"* D ` F ' L _ U 5 : 4 A 5 5 F _ F D Z D A Z / ` _ Y A U R 7 7 8 5 5 ` 5 ) A U Y E D = S < I 7 I 2 2 2 5 5 5 7 5 I U 5 U U 4 5 2 ",
"- 8 ) T _ I A 5 7 8 7 8 A 5 U Y U D U U U A _ _ _ _ _ u.t.R 8 T T 8 8 ) ) 8 A U E Y , A A 7 I 7 2 2 2 3 5 7 7 5 5 7 U Y U 5 5 2 ",
": e.) 9 8 6 4 6 6 6 8 T U U Y U U D _ ) U U U ) _ ) _ _ r.R T R 8 8 U 5 5 5 5 8 U 7 * 5 < 7 7 1 4 1 5 8 8 U 4 4 4 5 5 5 5 U 7 5 ",
"4 r.q q 0 6 6 6 0 6 8 } [ ` U ) T 7 8 ) U D ) U U 8 T U T q T 9 ) e.8 q 5 4 5 F Y A * A 5 1 5 7 7 1 5 U R ) 5 8 7 6 5 6 7 9 0 1 ",
"7 e.e.e.q.q 0 q q q q } _ _ r.) q q ) _ U _ _ _ t.R u.i.) ) r.w.r.r.e.y.T U U _ E T < R T 7 U 8 8 7 ) T T t.U T 7 6 q r.0 r.q.q ",
"8 e.e.e.q.r.e.0 q e.e.r.t.y.t._ R T _ u.} { s.a.p.u.) r.T t.T w.r.) _ _ ) _ _ Y R t.< R R T I Y U U ) t.) t.T w.r.) r.t.T t.q.T ",
"q r.r.e.r.T t.t.t.e.r.r.y.t.u.s.y.u.s.d.g.{ 1.j.;.p.R T w.q.w.a.a.a.a.p.p.} u.[ u.p.A w.t.R _ _ ` _ g.p.| i.i.u.t.u.) _ r.t.r.r.",
"D Y D Y Y ` ` U ` F ` Y { Y F | ] ] ] ;.;.Z ( o.*.' ] { F S Y { { 1.=.=.8.1.1.*.=.*.h L ` ' L / ` ] =.-.=.1.' ;.' | ` ` Y Y _ Y ",
"Z.C.V.C.C.9.C.8.,.2.o.,.,.,.,.,.2.6.9.7.9.9.6.2.2.-.=.^ o.o.,.+.,.9.9.8.2.C.9.2.-.-.-.2.,.,.+.,.-.2.8.8.C.-.M.C.9.C.c.9.6.9.8.8.",
"K.S.K.Z.H.H.K.9.9.9.,.8.8.8.9.9.8.9.C.C.C.C.9.9.8.9.6.2.-.2.2.,.,.9.0.9.C.C.C.8.2.z.6.k.6.9.9.c.c.C.S.S.H.6.Z.S.A.A.C.A.C.M.C.C.",
"H.K.H.S.H.H.H.Z.C.C.,.9.z.c.9.8.z.C.F.C.C.C.C.C.9.9.8.2.2.6.-.-.@.M.0.9.9.C.V.V.m.9.C.C.C.C.C.C.H.L.!.P.P.6.H.K.C.C.C.C.Z.Z.M.C.",
"K.S.K.H.!.K.!.H.S.H.-.c.9.c.9.0.C.A.H.H.H.F.C.C.z.9.z.4.9.6.2.,.( 0.9.9.C.C.C.C.m.C.C.z.c.v.A.H.H.!.~.~.'.8.K.H.S.H.L.A.L.S.C.P.",
"E.K.H.K./.^.)././.H.6.9.8.c.c.A.C.C.H.H.T.A.C.C.C.z.9.9.8.6.8.-.=.0.M.C.H.F.H.C.C.C.z.z.c.C.A.W.F.!.~.~.~.9.S.K.H.!.W.P.~.H.K.!.",
").H.!.H.L.!.)././.~.8.S.c.A.v.H.H.H.P.W.H.A.C.C.C.V.C.C.c.c.c.8.9.S.H.S.H.C.C.C.H.H.F.C.C.A.T.W.K.!.).!.!.8.P.H.P.!.P.~.!.).H.P.",
"H.L.E.Z.P././././.H.8.H.H.A.W.^.!.W.H.W.L.H.H.F.C.C.C.F.L.c.c.c.c.L.^.H.H.K.H.H.H.F.Z.C.H.C.~.!.T.P.!.!.!.z.K.I.S.!.P.~.'.~.!.K.",
"H.K.!.H.H.L.I.[.'.!.z.H.C.W.W.).!.H.L.!.H.F.H.F.H.C.F.T.L.v.H.G.v.^.!.A.F.H.H.K.E.~.H.H.H.!.~.].F.P.!.!.P.9.H.~.P.P.!.)._.).!.K.",
"H.H.P.H.H.S.H.!./.~.4.A.A.H.H.^.W.H.H.!.L.H.W.!.H.F.H.T.G.c.D.c.c.!.P.H.H.H.H.P.!.~.!.H.K.H.!.~.S.S.K.~.!.l.L./.!.!.H._.].~.~.!.",
"Z.P.H.H.H.C.c.H._.P.6.A.c.c.L.L.W.H.L.^.!.P.H.P.W.H.F.H.H.D.A.z.8.H.L.!.H.!.P.!.!.P.P.K.K.H.T.K.H.H.K.E.~.D.!.~./.[.H.!.'._.!.!.",
"z.z.C.C.c.9.8.0.c.0.( 0.0.0.4.9.9.z.c.c.D.C.A.C.C.9.C.C.v.c.9.,.1.0.S.D.z.c.C.C.D.A.C.C.C.C.8.z.8.C.Z.V.F.8.Z.W.H.H.D.T.H.W.D.F.",
"C.)./.!.!.^.H.L./.[.[.!.L.^.[./.}.{.XX{.^.v.L.P.!.!.!.)._.!.H.L.H.L.).!./.~.!.!.!.~.C.P.K.K.!.~.P.C.!.E.)._.!./._./.W._.|.'./.!.",
"N.[.[.I.[.[.I.I.[.[.[.[.[./.[.}.}.XXoXXX[.1.W.^./.).T.H._.~.H.H.H.!.!.!._.|._._._.'.A.'./._._.'.~.P.!.P././.~.{.'._.!.~._.{._.K.",
"N.[.[.[.[.K.P.[.I.I.I.^.[.{..XoX.XXXXX.X^.8.L.L.!.!.H.!.(.!.!.E.H.!.!.!.{._.'.|.|. XT._.'.'.|. XE.~.P.!._.{.!.'.'.~.K.)._.'._.K.",
"S.[.{.[.[.L.I.S.I.[.P.^.I./.[.}.[.XX[.oX[.8.W.W.).!.W.).E.T.).!.!././.~.XX X_.'. XoXG.{.|.{.'. XP.H.K.!././.~._._.{.).|.~.!.P.K.",
"L.{.[.[.[.[.[.I.[.^.P.I./.I.{.[.[.[.XXoX[.0.L.W.!.^.!.L.H.H./._./.'.).|.|.|.)._. X.X(.XX X'.'.{.H.L.!.~.'.'.P./.).).).!.K.I.!.H.",
"P.{.}.}.{.[.[.{.[.[.B.P.~.[.{.[.}.[.}.XX{.v.^.L.)._.).P.P.H._.'.}.{.'.'._.'._.!.`. X!.XX_.{.`.'.!.^.~.!.~./.P./.~._.(.{.I.P.I.K.",
"L.}.{.[.[.{.[.I.[.P.K.P.^./.~./.[.[.}.XX[.c./.H.P.).).P.!.H.}.|./././.!.R.~.E.E.!.~.D.|._._.~.E.H.L.P.P.!.H.S.H.!.[.!._.`././.P.",
"L.[.[.[.[.[.I.^.^.P.K.S.P.P./.P.L.[.[.[.[.C.P.A.H.P.L.L.H.A._./.!.H.H.A.F.H.F.H.K.K.z._.K.).!.H.9.S.C.F.C.C.9.Z.!./.H.!.P.!.P.S.",
"0.P.!.H.K.S.S.H.S.C.N.M.S.H.H.S.B.[.[.[.P.,.M.m.c.C.A.F.H.2.C.S.V.9.C.6.6.6.9.9.c.C.6.C.V.Z.C.C.6.z.5.C.7.9.2.C.C.A.D.!._.!.Z.C.",
"%.c.4.4.6.2.4.4.7.2.2.2.2.6.6.2.,.0.8.0.8.( %.@.,.%.2.6.,.o.-.@.-.>.-.X.+.+.-.+.-.@.^ >.=.@.>.@.^ o.+.+.+.+.( @.,.2.6.z.z.9.2.@.",
"& h h h h p p p j a p u p p j u p & h k j & p p p p j h V & p p p p p u & p p u p p & u u p p & & u & u p p u h p p j C C h p u ",
"( :.( +.-.,.1.,.:.' +.-.;.=.l.z.0.4.C.M.7.-.] -.o.] =.' ;.' ' / ' -.=.' ;.1.*.-.:.;.o.*.*.=.6.1.=.*.,.:.8.,.<.=.=.1.=.-.:.=.[ J ",
"~ ` 4 ` U [ U ;.{ E ' ;.*.2.:.;.;.] 6.` F L [ ` 1.` -.' -.,.=.D V ' 7 Y R { 5 [ L I P S S -.:.{ :.` 1.Y { +.Y Y 8.=.=.1.6.9.6.V ",
"3 ;.} 8.i.| | 8.| ' @.` 7 =.6.C.0.l.| 5 =./ 1._ 6.1.' / -.o.' 6.Y =.| h.| i.[ =.' V -.L 1 E :.k.N.8.1.R | 6.' | 8.g.9.,.2.>.-.E ",
"F { | z.g.| <.1.| 1.3.1.,.=.z.A.8.9.1.h.1.o.,.` ;.;.1.1.8.9.6.-.] ;.;.l.;.<.| ] E E >.' E E :.k.6.z.1.6.l.2.;.6.h.1.z.S.z.6.1.L ",
"( 8.l.8.8.6.,.=.-.1.4.c.9.8.9.c.8.6.c.8.c.,.-.,.8.,.,.,.6.8.6.8.-.8.8.1.8.8.1.2.-.-.@.=.O.-.2.+.1.=.8.z.8.-.,.8.9.8.6.6.1.2.=.o.",
"o # # % % o % % # # % y % t & % % % % % % # # % % # % O O % t @ % t & u a u u % t t % y t a t u t u t u & + # # O # O + O O o . ",
"C C J K o.^ *.*.-.:.' X.*.O.-.>.-.O.-.-.-.+.Q Q o.Q o.o.Q H W K W $.7.m.m.>.-.+.Q W W W Q O.$.3.8.3.$.>.8.P *.^ o.=.*.=.K K J x ",
"6.( 6.9.7.V.D.V.7.T.8.D.T.~.F.C.E.U.F.F.H.D.U.Y.E.K.m.(.U.V.V.V.C.K.P.~.~.Z.F.F.z.m.m.m.Z.K.E.~.~.]. XJ.XXl.z.-.H.R.W.~.x.D.z.9.",
"j.j.:.*.-.x.U.U.F.T.j.U.R.(.(.T.Q.U.V.V.E.T.V.V.F.R.7.R.U.U.F.V.D.~.).K.E.V.T.7.V.k.F.V.Z.K.J.K.E._.`.n.XXx.l.D.E.R.R.R.x.f.j.v.",
"j.h.o.P :.1.1.z.D.U.h.b.R.(.Q.6.R.U.V.D.R.U.k.6.V.V.F.R.V.:.j.V.V.E.T.K.Z.E.Y.8.k.:.V.V.F.K.n.J.E.(.`.K._.:.:.D.Y.R.T.].v.g.h.x.",
";.f.:.j.:.*.j.x.x.6.h.x.z.Y.Y.7.D.x.k.z.Y.D.:.6.k.U.b.Y.b.h.h.1.7.D.D.C.=.,.v.8.1.6.V.V.V.H.N.J.E.E.!.B.I.*.*.k.x.x.v.Y.x.:.z.k.",
"E *.:.P *.j.:.k.k.j.;.k.l.z.x.v.x.x.W $.Y.x.-.-.k.U.k.V.j.:.=.>.:.7.z.7.z.F.x.7.:.=.7.7.9.m.3.m.V.D.M.Z.H.:.;.k.h.z.=.b.h.+.;.h.",
"L E Q L P ;.*.:.:.h.' =.=.-.z.1.-.( m W l.:.^ o.j.k.k.1.:.j.>.o.W -.=.1.-.-.-.:.*.@.2.>.-.>.2.2.>.z.7.7.m.*.*.j.h. .Q j.h.*.1.=.",
"G G G G P G G a G P h K G K K K x j J G =.P x j Q Q o.K J J K K x K H W ^ c d i x K c o.P  . .-.W H W  .o.C G j J K P K J P K P ",
". X   . o . X .     . # . X X o   . o o o +   o . o X o X   o     o o o o o o X o o X O o O O @ X o O @ O         .     . o     ",
"J J J Z Z V ~ Z J L C Z Z Z / ~ ( ^ L J Z C Z C Z ( C Z / ^ Z C C j j j v v ^ ^ J J u C G G ~ ~ J L P J J J *.^ J +.X.o.] L J K ",
",.6.0.9.8.8.0.9.z.9.,.c.c.8.z.9.0.0.c.0.6.,.c.8.0.0.C.A.L.M.M.9.9.C.C.9.9.9.2.c.C.0.8.9.6.6.C.0.6.9.9.C.z.,.2.9.V.8.9.C.H.H.C.0.",
"9.S.P.S.A.A.L.L.H.H.9.D.A.A.L.A.S.S.S.S.S.2.S.I.^.P.L.^.[.L.^.L.~.~.~.S.H.S.c.H.S.S.H.H.0.H.I.^.F.H.P.L.F.8.8.L.H.Z.H.!./.{./.P.",
"5.0.L.S.H.P.K.0.S.L.c.C.c.0.A.H.C.Z.Z.L.S.0.K.!.I.P.L.L.W.C._.!.~.~.~.H.L.C.H.c.C.H.9.H.C.!.~.P.H.H.K.P.S.C.S.I.H.L.H.!././.{.K.",
"2.C.H.S.C.C.M.0.S.S.z.D.0.8.0.v.C.C.C.S.S.0.H.S.P.H.A.A.H.z.A.c.I.!.H.H.C.Z.A.0.C.S.9.0.S.H.Z.F.A.c.C.S.H.C.C.C.L.F.c.A.W.!.I.S.",
"6.M.C.H.H.F.S.L.^.P.9.A.S.H.L.0.C.Z.S.H.H.0.H.S.K.K.H.H.H.C.C.C.H.P.!.H.C.M.Z.C.H.H.0.H.H.C.Z.M.0.H.P.S.C.6.6.M.C.S.F.!./.{.P.L.",
"G J J K K K K P K x G J K o.o.K P K K K K k K ^  .J K / ( K G x J K K ^ K ^ J J K G J G H G G v G b  . .K K G G J x J Q Q P H v "
};
