/* XPM */
static char *_3fb9f38de45460681e84d3bddc8bfb5[] = {
/* columns rows colors chars-per-pixel */
"64 64 58 1 ",
"  c #2B261E",
". c #2C281F",
"X c #2C2720",
"o c #2D2921",
"O c #322C25",
"+ c #342F28",
"@ c #36312A",
"# c #3A342D",
"$ c #3D3730",
"% c #3E3932",
"& c #423C35",
"* c #453F39",
"= c #46413A",
"- c #4A443D",
"; c #4D4741",
": c #4E4942",
"> c #524C45",
", c #554E49",
"< c #57514A",
"1 c #5A544D",
"2 c #5D5651",
"3 c #5F5852",
"4 c #605751",
"5 c #625B55",
"6 c #665E59",
"7 c #646057",
"8 c #67605A",
"9 c #6B645D",
"0 c #70675F",
"q c #6E6760",
"w c #6F6861",
"e c #706761",
"r c #746C65",
"t c #796F67",
"y c #776F68",
"u c #786F68",
"i c #767067",
"p c #797067",
"a c #777069",
"s c #7B736C",
"d c #7F786F",
"f c #7F7770",
"g c #7F7870",
"h c #80776F",
"j c #81786F",
"k c #807770",
"l c #857C74",
"z c #887E77",
"x c #897F78",
"c c #8A8077",
"v c #8B817A",
"b c #91867E",
"n c #93887F",
"m c #928780",
"M c #958A82",
"N c #998D85",
"B c #9D9088",
"V c #A3968F",
/* pixels */
"rra6*6aaaaaaaaaaaaartayr%fflgslfgvggggase-$dndgisgggfzxvvkgf8vaa",
"adks53aaayassyr8aaaraayr%lffgkggkklgggfgd::lMdgskgffrfffmggs8vga",
"ykff92sryaaasay6aaaaauar$5vzkgdggfffygffa&-vVNvkgdkgslfkkcdflfgf",
"rsfd6:srraaraaayaaaasyaq@ffflkhjrdfffsi7#O@-wvlfgkkzvxlkggdfggff",
"r3re;X;3qrr1rssyarrrw92& =8are9<$:-&$@@&>1+&abllvMBmmxllxvzllggf",
":;-=@&==@o$*==;;--@&$*%%*%===---:>>::X@-&&OX-pzdy963221;<<<,<<,,",
"=16qryyr3*qsyrqqe93 $8q99waarrwrrr9w6*X#--862>-O+XooXXO+%%*;;:,%",
"sllhlsssq<yyyyyrre;X&rrrrrrrrrrrrrre9#$866ddsa5295>%X>reqqrryyq%",
"8jkd0sa9=#&<,>--;*#X%sarrrrerrrrrrrr1.<djrrrradljar5&1jzlxzlzzyo",
"#&##OX+O+-,159099q8=#2aaaaaararaarr9=+0drrirysrrrrre3#9kgsr63;#@",
"9629<-terdrrrrirya9>;ryaaaaaeaaaar81.-jaaaawayrrarrw5,+&%%*==,qq",
"erpp-0trrerrrraayrr=;aaqaaaaaaarepi< :lryaayyysfaarrie&@28q8qarw",
"rraw&rarrriaarrarae$@rataaaaayayir9%@2ldyaaayyyyaaaaay;-qarrrqrr",
"rar1-hrsadaeer955<-#<-9r98661-531>;X#rlsaasaaayraaa9aa;$5ayraaaa",
"ri5@&5-86<#@+#--*$------>--------&@XX#:161dkdsdddaaaar-:9sayaayr",
"53>OX+#&;156-<aar9e0re9rtrrtreq8983@==&@X O$=>29rpe98<@O:8wwr968",
"&>28wr38r0r9=3daaatrryrrrrrrrrrier2@qsw2qw6,;%@+X+#O      o#$$$*",
"wrrriirirrrw=<rsraaaaeaatryy8arre5$+dfysdlfgaw585*XX@1663<9wwwww",
"wrriiirrrrrr=X@$>1895easadsaaaaae5o#6zldyasaaayaaw-X,yayirrrrryr",
"wi0wrap8yyar&;55>&#=#@##&-,58wre9=X>klzzysaayaayqa9$$etr6arwirer",
"rrrrraaayaar&rzkrqllddr91#--=$;-$@X<vzzxfyyyaassaay2o*6rqtrrrrwe",
"eraaatsaair3&rzlfywtpjsdr-8rr89rrw8&9vzllffllxxzzxly*+4syataaari",
"raaaa8rtret4+szklfklklxzl<1aryyyeaa6-exzlrzxclcszzlz9+&6saaaaaaa",
"waaaqeyre081&zzzxllzkzlla=#;1ey9yaar,*rll6kdzldlzyuzf>X&rsaarysa",
"wr93*%=%%@XX@8itkvzzzz8<&606>=*#-16e> @&=>53rkvvxt,63%Xo199qq<wr",
"X-;X#;:=,<<:;*OO#19ee5#<<vzlldyq<=--&$==---====-;&+X#&&*=*%#X XX",
"@%#;9raamvvvlq2863>$.X4l0prrrrrr00ydae8adks95> .$*;:69q699985==&",
"3#<szsasyraayayaaayq&Ohssprrrrrwriarrraarewer8$-dllfuyuyryray8w9",
"q#5Mdasaaaaasaaaaarr&#jaajyyyrrrrrrrr8jrrrrret,<vzhllyyyyyytyyyy",
"e$1vazksffffssraaar5@#hjtafyyyyrryrtr5srryrrrr<2vzlxlxlkllfsrsaa",
"9$<mkkvggffffdffkfar@-zsqatyqslyaraaarpaaaaaty>&lvlzllfullzzzxzk",
":Oankgllgfgkfddfffda#,vpaayruyysaeaaaaaaayraay:<vxllfzllllszkllf",
"9+hjrlklkagllsq83575++8gyssarryadklssaaraqyr86%<varxzzxzzlxdarfl",
">OrpvvMMbdy>$+oX XO##XX@$%*=*%,,,>,36553>$*$#OX%5=9rrr59tee1=--,",
"-#=&5r5-$#$&=:;-239w908,=$$*%#XX @*o#5613522>:-==&&+.    OO-<14>",
"ee86>&O+:8yllsq69aaaaayffaq8qq3;o=2X8ssayyryayrrr086OX&>6q8wrrer",
"0rrir4@-1kksyskdayaaryaraasffyrq3=O*pyyayryywayarrw9@7aaiptarrrr",
"rrrrr5&dlcvzllksyaaaaaaaayyaaayyy8%3dyaaqyyyaaaraaa9#eaarerrarrr",
"e9irre*svzlzzzzlzkssyaayayayyyuua6#;raaawyayraaraaa9+1aaaarrrrir",
"waaiar-rzalxlzzzlzwalfflfflzlexls3Xo#-5rasaawayyaia9Owayaaapaaaa",
"rsayar=3zrlzzlzzlzklzklzztlllylxl*&33:%*;298ryyrr6w:+wyyaaayrtaa",
"99qqq<o@rcccvzvvvvxlzzzzxxlzzlxlf=3rrqqqq2@+#;;;*%+OX;6rydsa5qy9",
"$$$$#oXo+-><1559qrrdzvlzlrlzzlkzr#rayywyrw>O<qryrq:3,22-&;;-o$&*",
"8rasq<wq98511<--$$@X+%;<>*rsllly>-zfaautt9=16fyayrrqwye6>o=:<233",
"ryaayyyyrrrrtrarrw3@2#@,1;&&&&&# =ksdryew2&aapaaufsfsyry9==9rraa",
"qryayaayaryryyrrraw=X$smmmldye62-#--*+###O:lkllslzllltqfy:X&<890",
"169rrrqyayayyrraaar<@,vssyyyrrsslllsutq2;+8zzxlzxlllzzxlf*><-=%;",
"===<89rrrrryrrraaarw15lgffssdayyyayttsytr*avzlxzxzllxsld8#wdir92",
"wq6<-;:33iarririaayy86ddddddffddsdaaaatse-avclvaylsrq<-#X#akdljh",
"waaaae8<;>189erraary76dkddlssdfffglkasaa8&5r06,+O$&=:<:%X@raerar",
"eeyrrrrr9851;><6raaa5&jkfwvfddfflvkkdkde-.O@#*$+%5qerrw9<@2wrrrr",
"ryyrrrrrarr9q81:->55-&vvlllllkfakffkffss-<9w99w6qrrrrr9r8*iaaayp",
"raaarwyrijrrqrrrq2# X $59qslvmxlldffjddr&7iryyyyyyyrrrrr5&rrsaaa",
"raaaaaaypsarrrrrrr<&129952,:;->1>:>1155&O6daywaayyyyrrr9;$t9saat",
"easgayayrahairrrq6$2dkayyyqwsfsyeq51--$X#9aaaaaayaaraywy,%aaaara",
"raasdsyraaaaprrr5$:rftyayyyytyyytadare8>$5aaassaaawyayyy5+eksaaa",
"slfkdaaatayyyrrr<#0jsjklzzzklllkfysssst5**#$&&*--;;>,,,<& #3wfzl",
"-;<5raaassqqrrw5O,clzlzzzalzlzazllzzzxlq$=&221=*>:;;-=**&&$%=*::",
"<>$ XO$******=*# -rclllzzzzlzzxxxlsksyq4@O16dla6668q998966656<36",
"q55$$289ee5::;$@O+>8rrrtyy6ee9522,;--*&%O#qbyldyayyyyyyyyyrsyrra",
"ry92=airrrrrrarw851>;-&&OOX#&;;,392599q95+dvfgfawuyyassffyqyyaaa",
"qsy6-awrarrrarrraprrree9#O5syuyyyaaytdyrr&lkgffayfrrasssfxlayyaa",
"yayq:yaaaaaaraarrrrprrre*9xtassassdsavyyr&rmfffsyryy9lyyrfsayaya",
"wraq:>saaaaaarrrrrrrarrq-yllfalfglggsfyyr=<Mlfyffffffkffsffffsyy"
};
