/* XPM */
static char *_b391b608e0d44b1bb86277b4447d7ca[] = {
/* columns rows colors chars-per-pixel */
"64 64 66 1 ",
"  c #262624",
". c #282625",
"X c #272826",
"o c #2A2A26",
"O c #2D2D2A",
"+ c #302F2D",
"@ c #2F302D",
"# c #31322E",
"$ c #2F3030",
"% c #353532",
"& c #383734",
"* c #373834",
"= c #3A3A35",
"- c #3D3D39",
"; c #403F3C",
": c #3F413B",
"> c #42423D",
", c #454541",
"< c #484743",
"1 c #474844",
"2 c #4B4A45",
"3 c #4E4D49",
"4 c #514E4A",
"5 c #4F5049",
"6 c #54524D",
"7 c #58554F",
"8 c #565551",
"9 c #595752",
"0 c #5C5A55",
"q c #5F5D58",
"w c #605E57",
"e c #615E59",
"r c #64625C",
"t c #68665F",
"y c #676560",
"u c #6A6761",
"i c #6D6A64",
"p c #6F6D68",
"a c #706D66",
"s c #726E69",
"d c #75726C",
"f c #79756E",
"g c #7A786F",
"h c #777570",
"j c #7A7671",
"k c #7D7A73",
"l c #817D76",
"z c #837F79",
"x c #838077",
"c c #85817A",
"v c #89857E",
"b c #8C887F",
"n c #8B8780",
"m c #8D8A82",
"M c #918D85",
"N c #938E88",
"B c #949187",
"V c #959289",
"C c #99968D",
"Z c #9B988F",
"A c #9A9790",
"S c #9E9B91",
"D c #A19E95",
"F c #A3A097",
"G c #A7A49B",
"H c #A8A49B",
/* pixels */
"@@*0CGGGA:,=1cFHHGGSkOofMVVDHHGCVc+v19cbBBBm1*rCGGGHFl=1>===%OXX",
">>iSGGGGGv#-lSHHGHGGGl-6mVVVVCCVMd>FC%6cvnnc--qmAGGGHDt**kSSDSm5",
",dFHGHHHGB::cVDHGGHHGSfOfnVVVVNbs&0Mx>;>qru0O,3vVAGGGGZ>=vZFGGV>",
"kFHHGHGGVm-:rbVDGGHGDM6-4vvmMMk9%--<%296-O%=9y#hmBZGGHGk#uBVVm8-",
"FHHHHGFVm3-=-lMVDGDCMy*-Ouzzh6%;rd6=6SFFSne%MN&3cMVVCZDV-2nBn0Ok",
"VCAACVBv6#r0*>xMNVMVk*,p3o,==ynDGHB@aHHHGGA@i4oX0cvMVVVM3=dc8OkB",
"mBBBMnc6OkFFk+6cmVMv%>vDC=-<nDHHHHC@kFHHGGmO%,v9X6ccvMmv4&:,Odcn",
"cccccc6XdGGHGg@0zcl=&mGHD4-uCHHHHHVOnCGHGHu%:BHDk@1kczz6o6--6ccc",
"ifllf2%9FHGGGGi@9s**mGGGHd#dVFGGDCk$vVVSHA>*cHHHGc%=rr=>mGC*#>wt",
"O@#OO--VHHGGGGS3*O=zGGHGHMojVNDCBv9=vNVVBko9DGHGHHc*=%9ZSCM>>=OO",
"cku*,-rCHGHGHHHm%>uGGGGGHVOfVVMMf1%=kcmVm1&mGGHGHHGx#>bmvq*;6tdx",
"HHDi==kVFHGHHHHS<,BGGGGGHS+tbcs1o-*%:dccpXuVCHGHHFHZ:=i9=@amVVHH",
"HHGZ,%iMSGGGGGGB,4BGGGGGHS*:8*>rvCSz6o:>#>vNVSGGHGGC:>:u>=kvVVCG",
"FHGGv%9vVSGGGGSm*iVSHHGGHV*:,fZFGGGGFc==-ivVVNZGHGSM*6ZHk=2kvMVC",
"VADHGqOzBVSGGDCnokNCGGGGVM*=cVHGGGGGHGkO=jzNVVVCZCVb*BHHF=>=wlvM",
"vMVVSm%qnVBCZCBd%vVCSGDCVM$0MNGGGGGGHGvO=izvNVVVVVVk>ZHHF>=9-#rx",
"qkvmVVd%lbVVVVV7,vVVVZVVVcodMVSHGGGHHFu%>-kzvNVBVVVr5DGGV$yGAy@=",
"-%8dcmB2qcmMVVm-6cmVVVVVBt@zMVCGGGHHGC1-1%2czvNBBMv,eCGSu*VHHV@1",
",>#O;rgkogccccsO4zcvMVVMv<%vnVVDHGHGGmOgDiO9zcvccciOrVVM-rGHFa#:",
"DSVkq&oOO*ddi0==#1fccccs>#%izNVAGGHHD9>DGHpX1jkd8:o=rmMkovCCm=6V",
"HGHGGDb0=:@@@:>-&#O&48& #,*6znVVASDSM%cHGGG4$@@$%>,:9cx>,nnvr%bZ",
"GGGGGHGGl#>3vBZZVd9-o%-aZFcOfcmVVVVVr1FHGHGN%,>di1=,%$O >096#aVZ",
"GGGHGGGGx@>bVZGGGGDCk=1DHHH1,ccvmMMn%kGGGGGM=:lFGSe:=882-+%>1MVC",
"GHGGHGGDqodvVVGGGGGGGf=MSDDp#3kczccr-MGGGGGd*wGHGGk%iDGFSz>-wVVV",
"CGGGHGGB@@ccBVGGGHGHGC%fVVm9=*@1ilh%rVDHGGC1<CHGHHi:CGHGGF0*kBVV",
"VAGGGHSe$%kcnVFGGGHGGn%,ce-=6vc9Ooo=kVZHGDdOlGHHHS>8GGHHGG0-vnVV",
"VVVSGDv%=%qccmVCSDDDk*-=  %=aZHHB8,=vVBFSm-3MFHHScOfFHGGGF0<zzmB",
"VVVVBB3=k0*cccBVVVMr%*1elm6%6MFHGDr%8nBBBq*qVCDZB0*mCGGGGA30vzvm",
"nVVVVa+cGD=rcccvml,o3kAGHHS1@gVCFFv*=6vmk%>9BVBMx=1BVCFSVv>9zzzc",
"zvVNk%iGGHc%kcck6X,lSGGGHHGl -vmmv2**@,r*%@*yue8**qMVMMmkr#@rzvc",
"jlzd&8DGHGF,-q1o=aBSGGHHGGGV=:,sq#,rvrO*3dk%*@#*>>0diw4%o#=-OO<e",
"o+%O=nGHGGDi%@=6zmVGGGGGHGSn#,=@5xZFHFr#dSh%pmmxd3#&+#&,6qr9->=+",
"ck9=eNGGGDVk%,&zvnBGGGHHGCBq#=qmDGHGGHS2*2*cHHGGGV=-fmCSFFFSr=>s",
"HHF6evDGCVN4;,=ezvVVSSDSVVc%1cSGGHGGGGGc%:dAHHGGGA>9VGHHHHHGd*2Z",
"FHGk;vBVBm9%%8-OszNBVVVVVm,&cBGGHHGHGGGZ8*fVGGGGHD1rVGGGGHGHr%sZ",
"VBNv%fmNm8o0mSN*#knVVVVVM0@0mBSGGGGGGHHZq=0BCGGGHD1iVCGGHGHD8*lB",
"ddtq%8zz6OhSGHHm@>lnMVVBi#*dmVAGGGGGGGGB,>=vVCGGFC>aVVZGGGHC::9i",
"Xooo*-1=%zGHGHGGkX6cvmmf#,@cvNVDGGGGGGGv%-=uVVVDZM-rbVVVVCBk%,#o",
"BVVvi%%:dDHHGGHHGuXecch%>,ocvmVVSDSSDSVr#ci;vMNVVv=0cbMVBBv-*6dm",
"HHHHGhO-cGGHHHHGCV6Oea%=#+X-dzmNVVVVVVn-eVM,tzzzd4##wlxbnv1OrBGH",
"HHGGGA:%zCDDHGDVVVm-$o*-kmi-o4dvmMBBVMr%kBVk%,;%@=33%#1rs,#:vZHH",
"HHGGGGiXlmCDDCVVVVVdO,=mHGGDz1$:rhcczjO-dMVN1,%tvVSFZk3%O%*rmDHG",
"GHGGHHV@izMVMVVVVVNv1$kDGGGGGFe**%-33*:=%1ulr-9MSHHGHHFm9%#kMSHG",
"GGGHGHS32cvMNVNVVVnc%0NSHGGGGHV==1998=&dki3#&-eVHHGGHHHGn@1cmCGH",
"GGGGGGZyojzczccccczu+6vNSGGGHHn#uAFGGkOvVGGCe-7mSHGGHHHHmO0zmVSG",
"GGGHHDVcO-rye06<>=%+;-jmVCDDDDe=CGGHGA$kVDGGGi%zBGHGHHHHmoicmVVC",
"CDHHGCBc#>O.O+&>40ee<+>zvVVVVm&rSHHGGG5iVCGGGD93vCGGFFDCvofcvVVV",
"VVAFZBmt#4lcbMVSDFGDSy+4zvBVNrOlSHHHGGy8mVCDGGC%qnBVVVVVgOlccMVV",
"VVVVVMl+>vSDGGGHGHHGGSiX0ccnc%4mVGGGGCl>cbVVVVVsOrnMMmvl4$lzvcMN",
"BBVVBv6$kCGGGGHGHGGHGGB9O0cc6=eMVCFDVVnOfxvMmvvdO*4rq6-%%+uzzzzb",
"cnmVvdo9vVCDGHGHHHHFAVVkX%6r%>dbMVVVVVv#&>>21-*@=,=%%=*=,:%6jczc",
"cccvk#OlzNVVVCDDFDZVVmj*%3-O>=iccbnmmvv->->>->36-:-dCZMke3>%#<rf",
"*166%#:lccmNVVVVVVVMvr%*eDZa2:o=246664;#=iMCDFFFm*1VZHGHGGM0*-#O",
"kpq21,%*9pzccnMVVmvk1@=:cZFGZ8:=&&=3hy>>=dBVFHHGGi=nVSHHGGHvo,lc",
"CAFGDZ3>;*#&2rajck6@@,%%xnnk9%*==>>dDHk-,<vVCFHHGS:imVSDDFDcotVV",
"nnmMMNu*-8&>6a6+#o%rmDN-*:%#=2981O+wVA4=O*3kvVVZSGk1cMVVVBmq%qvv",
">>>>1>%=jGm-3Vk*1fSGGGHm*,>2MFGGFm&<cf0Cm-=%,pvvVVV>scbvvp,#=#%-",
"Cnfq,:>5AGHV,1&7nCGGHGHF6-=mGGGHHZ2-44CHGm=%06*8dcv9;lgr-%:3nVCS",
"HHHFC>#lSGGGM>=amCHFGGGC0%kDGGGGHD6>;bGGGGc=rZM8#>2>#=%>%,-lSGGG",
"HHHHC>-bVDGGGx-1cVCDGGSn%qAGGGHGHD6=rVGGGGGp>mSFv2:>6gVZ8=0MSGGG",
"HHHSd##dBVSHHb1-6xMVVZVq-MGGHGHGFD4;cVSGHHGD=dMCSv%6MDFFe+lNCGGG",
"FHSm::>-kBVZZd#1:>ivmmz#kAGGGHGHGZ37bVCDHHGH35cvr=:6zMCD9>zMVCSD",
"MBmq#:8=-lBBx=>%#>#>ic14mGGGHGGGDM>2zVVCHHHF6*:o@*==&wfz>2zzvnMM",
"ccq#1vFS>>cl-=6lZSc1o#%jMAGGGHHGCn=&wcMVVVVV8>=0kvca3;%%;+#<eidl"
};
