/* XPM */
static char *d61b907e8976461ae2d5ff4bd7fc0789[] = {
/* columns rows colors chars-per-pixel */
"64 64 88 1 ",
"  c #373227",
". c #383227",
"X c #373328",
"o c #3B342B",
"O c #3E382E",
"+ c #3F3930",
"@ c #40392F",
"# c #443D33",
"$ c #483F36",
"% c #464036",
"& c #484037",
"* c #474138",
"= c #4B443B",
"- c #4F483F",
"; c #50473E",
": c #51483F",
"> c #4F4940",
", c #534C43",
"< c #584F48",
"1 c #565046",
"2 c #595147",
"3 c #575048",
"4 c #5B544B",
"5 c #5F584E",
"6 c #5F5750",
"7 c #5F5850",
"8 c #60574F",
"9 c #60594F",
"0 c #605750",
"q c #635B53",
"w c #685F57",
"e c #685F58",
"r c #676056",
"t c #696157",
"y c #676059",
"u c #6C645B",
"i c #70675E",
"p c #70685F",
"a c #6F6760",
"s c #6F6860",
"d c #716760",
"f c #746B63",
"g c #786E66",
"h c #786F69",
"j c #777067",
"k c #797067",
"l c #777069",
"z c #7C746B",
"x c #7F786E",
"c c #7F7670",
"v c #7F7871",
"b c #80776E",
"n c #82796F",
"m c #807770",
"M c #857C73",
"N c #887E76",
"B c #8A7F79",
"V c #878075",
"C c #898077",
"Z c #8C837B",
"A c #91877E",
"S c #92887E",
"D c #918780",
"F c #958B82",
"G c #998F85",
"H c #9D8F88",
"J c #9A9086",
"K c #9D938A",
"L c #A1968D",
"P c #A3998F",
"I c #A49790",
"U c #A69C92",
"Y c #A99E94",
"T c #AB9F98",
"R c #ACA096",
"E c #AEA399",
"W c #B2A59C",
"Q c #B5A99E",
"! c #B9AB9F",
"~ c #B6AAA0",
"^ c #BAACA2",
"/ c #BEB1A6",
"( c #C0B2A7",
") c #C2B4A9",
"_ c #C6B9AD",
"` c #C9B9AF",
"' c #CEBEB3",
"] c #D7C6BC",
/* pixels */
"GJKM3MPKKKKKKKKKKKKFKKKG,IUEUPRUR/RUUPKPG6>U)UPJPRUUUQW/~URKC~KK",
"KUUPxvKKKKKKKKGCPKKFKKKG,TYUUURUUUERRPPRUrqR`URPRURUGUUY/URKC~UP",
"KRUYCzKGKKKKPKKMKKKKKPKG=M~QRUUUUURUJRRUK,5^]`/RRKUUKEUYRWUREPRU",
"GIUUMuKKGKKGKKKKKKKKKKKZ%URUWRURFUUUUPKv-O$wS~RURRRW~~ETURUURRUU",
"FzJFqoqxDGGjGKPKLGFKFZk,X5NKHSZf,y53-%%,ig@,L(WWW_')^^ETE~QWERRP",
"yq05=,63%O>4646eq4&,,3,,11445500wuiyro=74:@O9JWPJCMzkhlqlfffsssu",
"4fMZGKKGz3DKKGAFFZcX>NZSZGGKGFAFFJCDv4X=8qCMzt5O%Oo+oo#$>,477ys1",
"KQQURPIKZfKKKKGGGG0X,GGGJGGGGGJJGGGFA=,CNMUPPKMzCxa>ouGDDCGJKJD>",
"ZRRPALLA4=1pptrr04-o,KKGFJGSFGGGGJGGkXfURGGGGKUEULFM1kYWWQEE~EK+",
";,&=@O@@%qufnAZCZAC4=zKKKKKKJKJKJJGZ4#APKJGJKKJGJGFFz=ZRRPFMM6=%",
"CNkZptKSJPJJJJJJKKZtqGKKKKKKFKKKKJVfo9UKKLKAKKGKKGGZMi#,>>364uCD",
"SJJKrZJGGFJJJFKKKGG4wKKDKKKKKKKJSKJp.tEJKJKKKKKULKGJJF,%lCDZDKKG",
"FFKS4JKJJJJKKJKKKKS,=GLLKKKKKJKJKJZ,%kEPKKKKJKKGKKKKKKwqAKGGJAGG",
"GKGk9UJLKPKFSSAbzf0=p9CSZCMMjqMzfu0O=GWPLLPKPKKKJKKAKJq-MKKFKKKJ",
"FKM&,n6CMf==#;484;8qq899q909656671%XX;wkbfPYPIUUPKJKKJ5rZKKKKKJJ",
"zzr#X%=1wfMM4iLLFAGSSFAGLKKKJFDCAVx*54,%o.#,4tzZGJFZCf%%rVAFFAVV",
"4uzVSGxCFSJC5kPKKKKJGGGJJGJGGGGGSGk&DPFzDFva7>=+O#&#XXXXXX@==-,,",
"AJJJJJJJGGJF5fHPGKKKKFKKKKKGMKGFAM,#UPKPUURRPFvCM1OX%fMMngZZFFFF",
"SGGJJJJJGGJF4X&,tjCAnFKKPKPKKKKKFb#$NWRUKKPKKKKKKZ0oiKLKJGGGGGGJ",
"FGSSJJJCKJPG,wbbu,;4=#=-,0inCFGFZ4XtUWWQKKKKKKKKFKZ,;SHGMKGFGFFG",
"FGGKJKLJKKKF,KWYJZRUUPKZh=0q4;w0;#OiQWWQUKKKKKIKKKKzO<NFAKGFJGSF",
"FGKKLJPLKKFb,FWRUKGLLUPPG5CJFCZGGFB,Z^WWQUUEWWWWWWTH4#zPKKKKKKGK",
"GKKKKCFKFFKb$IWTWUUTUWQWRffPKKKKFKKM0F~WEKW~QWWPWWWWZ$<BPKKKKKLK",
"FKKKZFJJSSCk:QQQWWWWTWRWK4=qkSKBKKKGu3KRRMYUWEUEWKLWUu.,FKPKJJKK",
"FGCz414,>*OX*CKKY!WWWWCg:MSMu44=9fMFu %,9pnkKYQQWPiMz,.OfZZZFfFG",
"X5qX*ey4isitq4+O;gASSb=pg!EWWPHAf5q02,459054444wq,$o=,<445,&OXXO",
"#,>qZGKK/~^^EDlCNzt:@okWSLSLGJGGAAKPKSCLPULZMt O;5quNZZNZZZBm64,",
"b=aIEPKIKFKKKKKKKKKS,@UPPJLSGJGAGKKGGGKJGFAFGC;0PTUIPKKKKGGKGNDZ",
"S=n_UKKKKKKKPKKKKKJJ1=RJLPLKGGGGGGGGGZUJGGJGSHif^WUWYHKKKLHHKKKH",
"F,f^PWRIUUUUKPGKLKFz&-URKLPKGLKFGGKJGzLJJJFJGGfk!WEWWWTTYTYPGPKK",
"Z=f)UY^YRUUUUUURUULG&9WKALHKAPYKKGKKKGKKKKKKKKu2W!WWWWILWEWWWWWU",
"w+P^YUYRTURUURUUUUPP=p!LKKJFLKKPJSKKKKKLKKGKKJtpQWWWPWWWWTPWUWWU",
"C$UUJRRWUPREEKACzMVM##ZYKKLKKFKKPRYUIKKFKZKFCN,fQKJWWWWWWWWULFYW",
"u@JP!^))^UKt,$+X.X#&&OX#=,454,ufiudhMbnbu,1,*+X,n5ZJGGbAKSSk88qu",
"5,2,zJM9>=,35qq6hzZAASBd5,>4,&oXX$4O=zMzxxkfuw0642;%X.X .#@0pgzi",
"ASZMf:@&wCKTRPDCZKKKKKKUUKACFZx6@4lOCLLKKKKKPJGGFAZM#@,uMABSJGSG",
"FJGGGz#qjRYLKPUIKKKKGKKGKKIUPKGAz5#4KKKPKGKKFKKKJJSA%MKKKKJKJJGG",
"SJGGGb,PRQ!WWRYIKKKKKKKKKKKKKKKKKB,nPKKKZKKKKKKKKKJA&SKKJSJGJGGG",
"SZJKGA2PWWWWWWWWEYIKKKKKKKKKKKKLKM=0GKKKFKKKGKKGKKKZ%kKKKKJJGGJJ",
"FKKKLK9GWLWWWWWWRWGKRUTRUYERRFWRPzX+=5nFKKKKDKKKKKKZ#AKJJKKKJKKK",
"GPKKKG4vWKYWWWWWWWRRWTRWWLTWTKWWY44kbw;4wzZCGKKKGMDq#FKKKKKKGKKK",
"BZDZDjO#GQQ!^W!!~~WWWWWWWWWWWWWWY4zGGAZSSk%#>q764,#Oo0NGKPPKxSKZ",
",,>>*OXO#qtigznCAGHPW~WWWKQWWWYWF;GKGKSGGSu#lZGKKZecazh020t6O,,3",
"MDKIZfFZZCxfffw9,=#O#,qgu3FIYEWKuqWUKKLLKZ0fCKKKKGGDFKFMtO5wffxv",
"GKKKKKKKKFGGJJKGFFz=k=$afy4,,,3*.6YUPHHFFk1KKJKKKIUIPGFLZ56CFKKK",
"AGKKKKKKKFKKJJJJJJS6o,U//)RUKFCx0=q4<#;;=OrWREEPEWWWWLZYKrX,fMZS",
"fMCGJJAKKKKKKGJKKKGi%i^PKKKKKGPKRRWPPLBhw#CWWWWWWWRTWWWWU4ufr1:r",
"450sCZFGGGJJKFFKKKJSkMYUUUIPPKKKKLKKKKLHG1K!WWWWWWWWWIWUB=FPJGAk",
"DAMs7qrzzKKKGGGKKKKKCNRPURPRRUUUUIKKKKJLF9K!QQ~KKRUKZf0*O*KRPEYI",
"FKPKKFZs0ujMZFGGKKFKMnKRRPRUKURUURRUKPKKC1xFAMp%+=,5tft,X%JKGSLK",
"FSJGGGGFAVxfqufMFKKKM,RURDQRIRUYE~RYUUUFr #%=1>%,xDFFJFCj%kFGGSL",
"FKKJGGGGKGGAAZfqqubn92/~REERRRUKRUURUUPL4fZDCADVZGGGJGCKC3KKLKKJ",
"GKKKFFKGKRGGAGGFAz-...;nCFKW^/^ERUUUUPYK,MKJJJJKKKGGGGFGM,GSLKKK",
"FKKKKKKKJKKJKGGGFGp4gzZMxjfyqqtfyupfknn2#MUKKDKKKKKKGGGCq;KALKLJ",
"FKPRKKKKKKUKJJGGAN:zIRLHJKDFPPPGFZMf58,X-CKKKKKKKKKGKJSKp,LKKKSL",
"GKKPKPKGKKKKKGGFM=tJILKLKKKJKKKKKPUKFFBt,MKKKPIKKKFKKKKKb&SILLLK",
"IYUYUKKKKKKKKFKGf&SUPRYEWWWYRRRYUKIPPPKm34=,,4460wqaafsf,.%zFUWR",
"6wfmGKKKKPFZFFDc#pQWWRWWWPWWWWPWWTWWWWWA>5,zzf46uyqq66332,,,63yu",
"fe,.X#>35433444=.8GQWWWWWWWWWWWQWRUTUGZm%+kNIWKNNNBZCZZCCMMMclcM",
"ZMx,,kVZAAMwp0,*@&uMSJGKHGbFGZnhhfq894,,#=D^KRIKKKKKKKKKKKFPKFGK",
"GKCl4KJGGGGGGKGAMbgtw84,##O=1wwfzCkMZAAZM#UQURUKDIKKKLLPUJFKKKKK",
"FIKN5KFGKKFGKGGGKKJGFFSZ&@zLKKKGKKKKKPKGG;RRUURKKLKDPKPLPQEKKKKK",
"GKKDrKKKKKKKJJJGGGGJHGFS8Z~KKKIKIIUPK^KKG4K/UUYIKKKKCEKKGIIKKKKK",
"FKKZuuKKKKKKKJGGGGGGKKGA8HTWRKEUURUUPUKKG4s_ERKUUUUURRRUUUYUUKKK"
};
