/* XPM */
static char *_ed8079c8b1a4f7291eea9302d0095e5[] = {
/* columns rows colors chars-per-pixel */
"64 64 133 2 ",
"   c #E86843",
".  c #E86843",
"X  c #E66742",
"o  c #4A2115",
"O  c #EC6944",
"+  c #98442C",
"@  c #1E0D09",
"#  c #CC5B3B",
"$  c #EA6843",
"%  c #DC4E25",
"&  c #DC4E25",
"*  c #DA4E25",
"=  c #46190C",
"-  c #E05026",
";  c #903318",
":  c #1C0A05",
">  c #C24521",
",  c #DE4F26",
"<  c #D64015",
"1  c #D64015",
"2  c #D44015",
"3  c #441507",
"4  c #D94116",
"5  c #8C2A0E",
"6  c #1B0803",
"7  c #BC3913",
"8  c #D74115",
"9  c #D64116",
"0  c #D64116",
"q  c #D44016",
"w  c #441507",
"e  c #DA4216",
"r  c #8C2B0E",
"t  c #1C0803",
"y  c #BC3913",
"u  c #D84216",
"i  c #D64116",
"p  c #D64116",
"a  c #D44016",
"s  c #441507",
"d  c #D94216",
"f  c #8C2B0E",
"g  c #1B0803",
"h  c #BC3913",
"j  c #D74116",
"k  c #BD3D18",
"l  c #BD3D18",
"z  c #BC3C18",
"x  c #3D1308",
"c  c #C03E18",
"v  c #7C2810",
"b  c #180803",
"n  c #A63515",
"m  c #BF3D18",
"M  c #6F250F",
"N  c #70250F",
"B  c #6F250F",
"V  c #220B05",
"C  c #6F250F",
"Z  c #70250F",
"A  c #712610",
"S  c #702510",
"D  c #6F250F",
"F  c #712510",
"G  c #48180A",
"H  c #0D0402",
"J  c #62200D",
"K  c #702510",
"L  c #6F250F",
"P  c #6F250F",
"I  c #712510",
"U  c #1D0D08",
"Y  c #1D0D08",
"T  c #1D0D08",
"R  c #1C0D08",
"E  c #1E0D08",
"W  c #1A0B07",
"Q  c #050201",
"!  c #140905",
"~  c #1E0D08",
"^  c #1D0D08",
"/  c #1D0D08",
"(  c #1C0D08",
")  c #1D0D08",
"_  c #1D0D08",
"`  c #1D0D08",
"'  c #1D0D08",
"]  c #0A0403",
"[  c #CC5B3B",
"{  c #CC5B3B",
"}  c #CC5B3B",
"|  c #CC5B3B",
" . c #CD5C3B",
".. c #B35033",
"X. c #1A0C08",
"o. c #853C26",
"O. c #CF5D3C",
"+. c #CC5B3B",
"@. c #CC5B3B",
"#. c #CC5B3B",
"$. c #CC5B3B",
"%. c #CC5B3B",
"&. c #CC5B3B",
"*. c #CA5A3A",
"=. c #411D13",
"-. c #DE4F26",
";. c #E05026",
":. c #C34521",
">. c #1D0A05",
",. c #913419",
"<. c #E25026",
"1. c #DE4F26",
"2. c #DC4E25",
"3. c #47190C",
"4. c #702510",
"5. c #712610",
"6. c #63210E",
"7. c #0E0502",
"8. c #4A180A",
"9. c #722610",
"0. c #702510",
"q. c #6F2510",
"w. c #240C05",
"e. c #020100",
"r. c #020100",
"t. c #010000",
"y. c black",
"u. c #010000",
"i. c #020100",
"p. c #020100",
"a. c #020100",
"s. c #010000",
"d. c white",
/* pixels */
"              . X o o X .                                 O + @ # $                                 $ # @ + O                   ",
"% % % % % % % & * = = * & % % % % % % % % % % % % % % % % - ; : > , % % % % % % % % % % % % % % % % , > : ; - % % % % % % % % % ",
"< < < < < < < 1 2 3 3 2 1 < < < < < < < < < < < < < < < < 4 5 6 7 8 < < < < < < < < < < < < < < < < 8 7 6 5 4 < < < < < < < < < ",
"9 9 9 9 9 9 9 0 q w w q 0 9 9 9 9 9 9 9 9 9 9 9 9 9 9 9 9 e r t y u 9 9 9 9 9 9 9 9 9 9 9 9 9 9 9 9 u y t r e 9 9 9 9 9 9 9 9 9 ",
"i i i i i i i p a s s a p i i i i i i i i i i i i i i i i d f g h j i i i i i i i i i i i i i i i i j h g f d i i i i i i i i i ",
"k k k k k k k l z x x z l k k k k k k k k k k k k k k k k c v b n m k k k k k k k k k k k k k k k k m n b v c k k k k k k k k k ",
"M M M M M M M N B V V B N M M M M M C Z A S D M M M M M M F G H J K M M M M M L P I I P L M M M M M K J H G F M M M M M M M M M ",
"U U U U U U U Y T R R T Y U U U U U E W Q ! ~ U U U U U U ^ / ( ) _ U U U U U ` ' ] ] ' ` U U U U U _ ) ( / ^ U U U U U U U U U ",
"[ [ [ [ [ [ [ { } | | } { [ [ [ [ [  ...X.o.O.[ [ [ [ [ [ +.@.#.$.%.[ [ [ [ [ &.*.=.=.*.&.[ [ [ [ [ %.$.#.@.+.[ [ [ [ [ [ [ [ [ ",
"-.-.-.-.-.-.-.-.-.-.-.-.-.-.-.-.-.-.;.:.>.,.<.-.-.-.-.-.-.-.-.-.-.-.-.-.-.-.-.1.2.3.3.2.1.-.-.-.-.-.-.-.-.-.-.-.-.-.-.-.-.-.-.-.",
"< < < < < < < < < < < < < < < < < < 8 7 6 5 4 < < < < < < < < < < < < < < < < 1 2 3 3 2 1 < < < < < < < < < < < < < < < < < < < ",
"9 9 9 9 9 9 9 9 9 9 9 9 9 9 9 9 9 9 u y t r e 9 9 9 9 9 9 9 9 9 9 9 9 9 9 9 9 0 q w w q 0 9 9 9 9 9 9 9 9 9 9 9 9 9 9 9 9 9 9 9 ",
"i i i i i i i i i i i i i i i i i i j h g f d i i i i i i i i i i i i i i i i p a s s a p i i i i i i i i i i i i i i i i i i i ",
"k k k k k k k k k k k k k k k k k k m n b v c k k k k k k k k k k k k k k k k l z x x z l k k k k k k k k k k k k k k k k k k k ",
"M M M M M M M L P I I P L M M M M M K J H G F M M M M M M D S A Z C M M M M M N B V V B N M M M M M C Z A S D M M M M M M M M M ",
"U U U U U U U ` ' ] ] ' ` U U U U U _ ) ( / ^ U U U U U U ~ ! Q W E U U U U U Y T R R T Y U U U U U E W Q ! ~ U U U U U U U U U ",
"[ [ [ [ [ [ [ &.*.=.=.*.&.[ [ [ [ [ %.$.#.@.+.[ [ [ [ [ [ O.o.X... .[ [ [ [ [ { } | | } { [ [ [ [ [  ...X.o.O.[ [ [ [ [ [ [ [ [ ",
"-.-.-.-.-.-.-.1.2.3.3.2.1.-.-.-.-.-.-.-.-.-.-.-.-.-.-.-.-.<.,.>.:.;.-.-.-.-.-.-.-.-.-.-.-.-.-.-.-.-.;.:.>.,.<.-.-.-.-.-.-.-.-.-.",
"< < < < < < < 1 2 3 3 2 1 < < < < < < < < < < < < < < < < 4 5 6 7 8 < < < < < < < < < < < < < < < < 8 7 6 5 4 < < < < < < < < < ",
"9 9 9 9 9 9 9 0 q w w q 0 9 9 9 9 9 9 9 9 9 9 9 9 9 9 9 9 e r t y u 9 9 9 9 9 9 9 9 9 9 9 9 9 9 9 9 u y t r e 9 9 9 9 9 9 9 9 9 ",
"i i i i i i i p a s s a p i i i i i i i i i i i i i i i i d f g h j i i i i i i i i i i i i i i i i j h g f d i i i i i i i i i ",
"k k k k k k k l z x x z l k k k k k k k k k k k k k k k k c v b n m k k k k k k k k k k k k k k k k m n b v c k k k k k k k k k ",
"M M M M M M M N B V V B N M M M M M C Z A S D M M M M M M F G H J K M M M M M L P I I P L M M M M M K J H G F M M M M M M M M M ",
"U U U U U U U Y T R R T Y U U U U U E W Q ! ~ U U U U U U ^ / ( ) _ U U U U U ` ' ] ] ' ` U U U U U _ ) ( / ^ U U U U U U U U U ",
"[ [ [ [ [ [ [ { } | | } { [ [ [ [ [  ...X.o.O.[ [ [ [ [ [ +.@.#.$.%.[ [ [ [ [ &.*.=.=.*.&.[ [ [ [ [ %.$.#.@.+.[ [ [ [ [ [ [ [ [ ",
"-.-.-.-.-.-.-.-.-.-.-.-.-.-.-.-.-.-.;.:.>.,.<.-.-.-.-.-.-.-.-.-.-.-.-.-.-.-.-.1.2.3.3.2.1.-.-.-.-.-.-.-.-.-.-.-.-.-.-.-.-.-.-.-.",
"< < < < < < < < < < < < < < < < < < 8 7 6 5 4 < < < < < < < < < < < < < < < < 1 2 3 3 2 1 < < < < < < < < < < < < < < < < < < < ",
"9 9 9 9 9 9 9 9 9 9 9 9 9 9 9 9 9 9 u y t r e 9 9 9 9 9 9 9 9 9 9 9 9 9 9 9 9 0 q w w q 0 9 9 9 9 9 9 9 9 9 9 9 9 9 9 9 9 9 9 9 ",
"i i i i i i i i i i i i i i i i i i j h g f d i i i i i i i i i i i i i i i i p a s s a p i i i i i i i i i i i i i i i i i i i ",
"k k k k k k k k k k k k k k k k k k m n b v c k k k k k k k k k k k k k k k k l z x x z l k k k k k k k k k k k k k k k k k k k ",
"M M M M M M M L P I I P L M M M M M K J H G F M M M M M M D S A Z C M M M M M N B V V B N M M M M M C Z A S D M M M M M M M M M ",
"U U U U U U U ` ' ] ] ' ` U U U U U _ ) ( / ^ U U U U U U ~ ! Q W E U U U U U Y T R R T Y U U U U U E W Q ! ~ U U U U U U U U U ",
"[ [ [ [ [ [ [ &.*.=.=.*.&.[ [ [ [ [ %.$.#.@.+.[ [ [ [ [ [ O.o.X... .[ [ [ [ [ { } | | } { [ [ [ [ [  ...X.o.O.[ [ [ [ [ [ [ [ [ ",
"-.-.-.-.-.-.-.1.2.3.3.2.1.-.-.-.-.-.-.-.-.-.-.-.-.-.-.-.-.<.,.>.:.;.-.-.-.-.-.-.-.-.-.-.-.-.-.-.-.-.;.:.>.,.<.-.-.-.-.-.-.-.-.-.",
"< < < < < < < 1 2 3 3 2 1 < < < < < < < < < < < < < < < < 4 5 6 7 8 < < < < < < < < < < < < < < < < 8 7 6 5 4 < < < < < < < < < ",
"9 9 9 9 9 9 9 0 q w w q 0 9 9 9 9 9 9 9 9 9 9 9 9 9 9 9 9 e r t y u 9 9 9 9 9 9 9 9 9 9 9 9 9 9 9 9 u y t r e 9 9 9 9 9 9 9 9 9 ",
"i i i i i i i p a s s a p i i i i i i i i i i i i i i i i d f g h j i i i i i i i i i i i i i i i i j h g f d i i i i i i i i i ",
"k k k k k k k l z x x z l k k k k k k k k k k k k k k k k c v b n m k k k k k k k k k k k k k k k k m n b v c k k k k k k k k k ",
"M M M M M M M N B V V B N M M M M M C Z A S D M M M M M M F G H J K M M M M M L P I I P L M M M M M K J H G F M M M M M M M M M ",
"U U U U U U U Y T R R T Y U U U U U E W Q ! ~ U U U U U U ^ / ( ) _ U U U U U ` ' ] ] ' ` U U U U U _ ) ( / ^ U U U U U U U U U ",
"[ [ [ [ [ [ [ { } | | } { [ [ [ [ [  ...X.o.O.[ [ [ [ [ [ +.@.#.$.%.[ [ [ [ [ &.*.=.=.*.&.[ [ [ [ [ %.$.#.@.+.[ [ [ [ [ [ [ [ [ ",
"-.-.-.-.-.-.-.-.-.-.-.-.-.-.-.-.-.-.;.:.>.,.<.-.-.-.-.-.-.-.-.-.-.-.-.-.-.-.-.1.2.3.3.2.1.-.-.-.-.-.-.-.-.-.-.-.-.-.-.-.-.-.-.-.",
"< < < < < < < < < < < < < < < < < < 8 7 6 5 4 < < < < < < < < < < < < < < < < 1 2 3 3 2 1 < < < < < < < < < < < < < < < < < < < ",
"9 9 9 9 9 9 9 9 9 9 9 9 9 9 9 9 9 9 u y t r e 9 9 9 9 9 9 9 9 9 9 9 9 9 9 9 9 0 q w w q 0 9 9 9 9 9 9 9 9 9 9 9 9 9 9 9 9 9 9 9 ",
"i i i i i i i i i i i i i i i i i i j h g f d i i i i i i i i i i i i i i i i p a s s a p i i i i i i i i i i i i i i i i i i i ",
"k k k k k k k k k k k k k k k k k k m n b v c k k k k k k k k k k k k k k k k l z x x z l k k k k k k k k k k k k k k k k k k k ",
"M M M M M M M L P I I P L M M M M M K J H G F M M M M M M D S A Z C M M M M M N B V V B N M M M M M C Z A S D M M M M M M M M M ",
"U U U U U U U ` ' ] ] ' ` U U U U U _ ) ( / ^ U U U U U U ~ ! Q W E U U U U U Y T R R T Y U U U U U E W Q ! ~ U U U U U U U U U ",
"[ [ [ [ [ [ [ &.*.=.=.*.&.[ [ [ [ [ %.$.#.@.+.[ [ [ [ [ [ O.o.X... .[ [ [ [ [ { } | | } { [ [ [ [ [  ...X.o.O.[ [ [ [ [ [ [ [ [ ",
"-.-.-.-.-.-.-.1.2.3.3.2.1.-.-.-.-.-.-.-.-.-.-.-.-.-.-.-.-.<.,.>.:.;.-.-.-.-.-.-.-.-.-.-.-.-.-.-.-.-.;.:.>.,.<.-.-.-.-.-.-.-.-.-.",
"< < < < < < < 1 2 3 3 2 1 < < < < < < < < < < < < < < < < 4 5 6 7 8 < < < < < < < < < < < < < < < < 8 7 6 5 4 < < < < < < < < < ",
"9 9 9 9 9 9 9 0 q w w q 0 9 9 9 9 9 9 9 9 9 9 9 9 9 9 9 9 e r t y u 9 9 9 9 9 9 9 9 9 9 9 9 9 9 9 9 u y t r e 9 9 9 9 9 9 9 9 9 ",
"i i i i i i i p a s s a p i i i i i i i i i i i i i i i i d f g h j i i i i i i i i i i i i i i i i j h g f d i i i i i i i i i ",
"k k k k k k k l z x x z l k k k k k k k k k k k k k k k k c v b n m k k k k k k k k k k k k k k k k m n b v c k k k k k k k k k ",
"M M M M M M M N B V V B N M M M M M C Z A S D M M M M M M F G H J K M M M M M L P I I P L M M M M M K J H G F M M M M M M M M M ",
"U U U U U U U Y T R R T Y U U U U U E W Q ! ~ U U U U U U ^ / ( ) _ U U U U U ` ' ] ] ' ` U U U U U _ ) ( / ^ U U U U U U U U U ",
"[ [ [ [ [ [ [ { } | | } { [ [ [ [ [  ...X.o.O.[ [ [ [ [ [ +.@.#.$.%.[ [ [ [ [ &.*.=.=.*.&.[ [ [ [ [ %.$.#.@.+.[ [ [ [ [ [ [ [ [ ",
"-.-.-.-.-.-.-.-.-.-.-.-.-.-.-.-.-.-.;.:.>.,.<.-.-.-.-.-.-.-.-.-.-.-.-.-.-.-.-.1.2.3.3.2.1.-.-.-.-.-.-.-.-.-.-.-.-.-.-.-.-.-.-.-.",
"< < < < < < < < < < < < < < < < < < 8 7 6 5 4 < < < < < < < < < < < < < < < < 1 2 3 3 2 1 < < < < < < < < < < < < < < < < < < < ",
"9 9 9 9 9 9 9 9 9 9 9 9 9 9 9 9 9 9 u y t r e 9 9 9 9 9 9 9 9 9 9 9 9 9 9 9 9 0 q w w q 0 9 9 9 9 9 9 9 9 9 9 9 9 9 9 9 9 9 9 9 ",
"i i i i i i i i i i i i i i i i i i j h g f d i i i i i i i i i i i i i i i i p a s s a p i i i i i i i i i i i i i i i i i i i ",
"k k k k k k k k k k k k k k k k k k m n b v c k k k k k k k k k k k k k k k k l z x x z l k k k k k k k k k k k k k k k k k k k ",
"4.4.4.4.4.4.4.4.4.4.4.4.4.4.4.4.4.4.5.6.7.8.9.4.4.4.4.4.4.4.4.4.4.4.4.4.4.4.4.0.q.w.w.q.0.4.4.4.4.4.4.4.4.4.4.4.4.4.4.4.4.4.4.4.",
"e.e.e.e.e.e.e.e.e.e.e.e.e.e.e.e.e.e.r.t.y.u.i.e.e.e.e.e.e.e.e.e.e.e.e.e.e.e.e.p.a.s.s.a.p.e.e.e.e.e.e.e.e.e.e.e.e.e.e.e.e.e.e.e."
};
